<svg width="703" height="540" viewBox="0 0 703 540" fill="none" xmlns="http://www.w3.org/2000/svg">
<path d="M154.876 284.655C79.0007 292.495 41.9664 396.473 32.9336 447.482V540H672.001V32.123C657.7 119.567 499.626 129.367 437.15 262.041C385.486 371.751 249.72 274.856 154.876 284.655Z" fill="url(#paint0_linear_232_3557)"/>
<path d="M32 447.359C41.0328 396.35 78.0671 292.372 153.942 284.532C248.786 274.733 384.553 371.628 436.216 261.917C498.693 129.244 656.766 119.444 671.068 32" stroke="#8B7AFF" stroke-width="12" stroke-linecap="round" stroke-linejoin="round"/>
<g filter="url(#filter0_f_232_3557)">
<path d="M32 447.359C41.0328 396.35 78.0671 292.372 153.942 284.532C248.786 274.733 384.553 371.628 436.216 261.917C498.693 129.244 656.766 119.444 671.068 32" stroke="#8B7AFF" stroke-width="12" stroke-linecap="round" stroke-linejoin="round"/>
</g>
<defs>
<filter id="filter0_f_232_3557" x="0.563114" y="0.562138" width="701.944" height="478.235" filterUnits="userSpaceOnUse" color-interpolation-filters="sRGB">
<feFlood flood-opacity="0" result="BackgroundImageFix"/>
<feBlend mode="normal" in="SourceGraphic" in2="BackgroundImageFix" result="shape"/>
<feGaussianBlur stdDeviation="12.7184" result="effect1_foregroundBlur_232_3557"/>
</filter>
<linearGradient id="paint0_linear_232_3557" x1="352.468" y1="32.123" x2="352.468" y2="540" gradientUnits="userSpaceOnUse">
<stop stop-color="#8B7AFF"/>
<stop offset="1" stop-color="#8B7AFF" stop-opacity="0"/>
</linearGradient>
</defs>
</svg>
